<svg width="24" height="24" viewBox="0 0 24 24" fill="none" xmlns="http://www.w3.org/2000/svg">
<path d="M15.6 4.6C18.69 4.6 21.2 7.11 21.2 10.2C21.2 13.29 18.69 15.8 15.6 15.8H10.4V18.09L5.38995 14.92C3.76995 13.88 2.79995 12.12 2.79995 10.2C2.79995 7.11 5.30995 4.6 8.39995 4.6H15.6ZM15.6 3H8.39995C4.41995 3 1.19995 6.22 1.19995 10.2C1.19995 12.75 2.52995 14.99 4.52995 16.26L12 21V17.4H15.6C19.58 17.4 22.7999 14.18 22.7999 10.2C22.7999 6.22 19.58 3 15.6 3Z" fill="currentColor"/>
<path d="M11.9999 8.40002C11.1199 8.40002 10.3999 9.12002 10.3999 10C10.3999 10.88 11.1199 11.6 11.9999 11.6C12.8799 11.6 13.5999 10.88 13.5999 10C13.5999 9.12002 12.8799 8.40002 11.9999 8.40002Z" fill="currentColor"/>
<path d="M7.2001 8.40002C6.3201 8.40002 5.6001 9.12002 5.6001 10C5.6001 10.88 6.3201 11.6 7.2001 11.6C8.0801 11.6 8.8001 10.88 8.8001 10C8.8001 9.12002 8.0801 8.40002 7.2001 8.40002Z" fill="currentColor"/>
<path d="M16.8 8.40002C15.92 8.40002 15.2 9.12002 15.2 10C15.2 10.88 15.92 11.6 16.8 11.6C17.68 11.6 18.4 10.88 18.4 10C18.4 9.12002 17.68 8.40002 16.8 8.40002Z" fill="currentColor"/>
</svg>
