<svg width="1024" height="1024" viewBox="0 0 22 22" fill="none" xmlns="http://www.w3.org/2000/svg">
  <g transform="translate(4,0)">
    <g clip-path="url(#clip0_8012_624)">
      <path d="M1.82781 4.23759L0.392085 1.87003C0.24217 1.62412 0.322893 1.29815 0.57083 1.14947C0.824532 1.00078 1.14743 1.08084 1.30311 1.33247L2.73306 3.70574C2.88298 3.95165 2.80225 4.27762 2.55432 4.42631C2.46783 4.47778 2.37557 4.50065 2.28332 4.50065C2.10457 4.50065 1.92583 4.40915 1.82781 4.24331V4.23759ZM10.9207 4.41487C11.0072 4.47206 11.1052 4.49493 11.2033 4.49493C11.382 4.49493 11.555 4.40343 11.653 4.24903L13.1406 1.88147C13.2963 1.63556 13.2213 1.30959 12.9676 1.15519C12.7197 1.00078 12.391 1.07512 12.2354 1.32103L10.7477 3.68859C10.5921 3.93449 10.667 4.26046 10.9207 4.41487ZM6.76923 4.60359C3.03289 4.60359 0 7.61165 0 11.3174C0 13.9194 1.48762 16.1726 3.67291 17.2878C4.48015 18.0369 4.92989 18.6488 5.36234 19.215C5.29315 19.2607 5.24125 19.3122 5.21819 19.3694C5.19513 19.4266 5.20089 19.4895 5.23549 19.5524C5.27008 19.6096 5.32198 19.661 5.39693 19.7068C5.39693 19.7068 5.3854 19.7182 5.37964 19.7239C5.32198 19.7811 5.29315 19.8383 5.29315 19.9012C5.29315 19.9698 5.33351 20.0442 5.3854 20.0957C5.40847 20.1243 5.4373 20.1471 5.47189 20.17C5.44306 20.1986 5.42 20.2272 5.4027 20.2615C5.37387 20.3187 5.37387 20.3873 5.4027 20.4559C5.43153 20.5188 5.48342 20.576 5.55838 20.6332C5.48919 20.7018 5.46613 20.7819 5.47766 20.862C5.50649 21.0049 5.65064 21.1308 5.85821 21.228C5.87551 21.2337 5.89857 21.2451 5.91587 21.2508C5.9274 21.2909 5.93893 21.3366 5.9447 21.3767C5.98506 21.4396 6.06578 21.4967 6.16381 21.5425C6.29642 21.6969 6.54436 21.9657 6.76346 22.0057C6.98257 21.9657 7.23051 21.6969 7.36312 21.5425C7.46115 21.4967 7.54763 21.4396 7.58223 21.3767C7.59376 21.3366 7.60529 21.2909 7.61106 21.2508C7.62836 21.2451 7.65142 21.2394 7.66872 21.228C7.87629 21.1308 8.02621 21.0049 8.05504 20.862C8.07234 20.7819 8.04351 20.7018 7.97432 20.6332C8.04351 20.5818 8.0954 20.5188 8.13 20.4559C8.15883 20.3873 8.15306 20.3187 8.13 20.2615C8.1127 20.2329 8.08963 20.2043 8.0608 20.17C8.0954 20.1471 8.12423 20.1243 8.14729 20.0957C8.19919 20.0442 8.23955 19.9698 8.23955 19.9012C8.23955 19.8383 8.21072 19.7811 8.15306 19.7239C8.15306 19.7239 8.14153 19.7125 8.13576 19.7068C8.20495 19.6553 8.26261 19.6038 8.29721 19.5524C8.33181 19.4895 8.33757 19.4266 8.31451 19.3694C8.29144 19.3122 8.23955 19.2607 8.17036 19.215C8.59704 18.6488 9.05255 18.0369 9.85978 17.2878C12.0393 16.1726 13.5327 13.9194 13.5327 11.3174C13.5327 7.61165 10.4998 4.60359 6.76346 4.60359H6.76923ZM6.80383 0C6.50976 0 6.27336 0.234468 6.27336 0.526124V3.27684C6.27336 3.5685 6.50976 3.80296 6.80383 3.80296C7.09789 3.80296 7.33429 3.5685 7.33429 3.27684V0.526124C7.33429 0.234468 7.09789 0 6.80383 0Z" fill="currentColor" fill-opacity="0.866667"/>
    </g>
  </g>
  <defs>
    <clipPath id="clip0_8012_624">
      <rect width="13.5385" height="22" fill="white"/>
    </clipPath>
  </defs>
</svg>
