<svg width="24" height="24" viewBox="0 0 24 24" fill="none" xmlns="http://www.w3.org/2000/svg">
<path d="M19.4411 20.4027L13.2439 14.2027C12.7504 14.6156 12.1812 14.9341 11.5364 15.1582C10.8915 15.3822 10.2313 15.4942 9.55563 15.4942C7.88146 15.4942 6.46663 14.9162 5.31113 13.7602C4.15563 12.6042 3.57788 11.1917 3.57788 9.52273C3.57788 7.85373 4.15496 6.4404 5.30913 5.28273C6.46346 4.12507 7.87596 3.54623 9.54663 3.54623C11.2173 3.54623 12.6315 4.12474 13.7894 5.28174C14.947 6.4389 15.5259 7.85282 15.5259 9.52348C15.5259 10.222 15.4085 10.8949 15.1739 11.5422C14.9392 12.1897 14.626 12.7504 14.2344 13.2242L20.4344 19.4095L19.4411 20.4027ZM9.55188 14.0952C10.8319 14.0952 11.9144 13.6534 12.7994 12.7697C13.6844 11.8859 14.1269 10.8026 14.1269 9.51973C14.1269 8.23673 13.6844 7.15357 12.7994 6.27023C11.9144 5.3869 10.831 4.94523 9.54938 4.94523C8.26771 4.94523 7.18521 5.38707 6.30188 6.27074C5.41855 7.1544 4.97688 8.23774 4.97688 9.52074C4.97688 10.8037 5.41863 11.8869 6.30213 12.7702C7.1858 13.6536 8.26905 14.0952 9.55188 14.0952Z" fill="currentColor"/>
</svg>
