<svg width="24" height="24" viewBox="0 0 24 24" fill="none" xmlns="http://www.w3.org/2000/svg">
<path d="M11.9999 20.125L10.8499 19.0875C9.21207 17.628 7.86099 16.3777 6.79665 15.3365C5.73215 14.2955 4.8934 13.3717 4.2804 12.565C3.66724 11.7583 3.24224 11.021 3.0054 10.353C2.7684 9.68501 2.6499 9.00068 2.6499 8.30001C2.6499 6.86651 3.14157 5.65818 4.1249 4.67501C5.10807 3.69168 6.3164 3.20001 7.7499 3.20001C8.55474 3.20001 9.33507 3.37501 10.0909 3.72501C10.8469 4.07501 11.4832 4.57501 11.9999 5.22501C12.5416 4.57501 13.1832 4.07501 13.9249 3.72501C14.6666 3.37501 15.4416 3.20001 16.2499 3.20001C17.6834 3.20001 18.8917 3.69168 19.8749 4.67501C20.8582 5.65818 21.3499 6.86651 21.3499 8.30001C21.3499 9.00068 21.2356 9.67668 21.0069 10.328C20.7784 10.9793 20.3576 11.7042 19.7444 12.5025C19.1314 13.3008 18.2885 14.2288 17.2157 15.2865C16.143 16.3443 14.7711 17.628 13.0999 19.1375L11.9999 20.125ZM11.9999 17.875C13.5166 16.5083 14.7666 15.3458 15.7499 14.3875C16.7332 13.4292 17.5166 12.5917 18.0999 11.875C18.6832 11.1583 19.0916 10.5193 19.3249 9.95801C19.5582 9.39668 19.6749 8.84368 19.6749 8.29901C19.6749 7.32468 19.3469 6.51043 18.6909 5.85626C18.0349 5.2021 17.2233 4.87501 16.2562 4.87501C15.6853 4.87501 15.1478 4.99585 14.6437 5.23751C14.1395 5.47918 13.6916 5.82918 13.2999 6.28751L12.4249 7.31251H11.5749L10.6999 6.28751C10.3082 5.82918 9.85199 5.47918 9.33115 5.23751C8.81032 4.99585 8.28115 4.87501 7.74365 4.87501C6.77649 4.87501 5.9649 5.2021 5.3089 5.85626C4.6529 6.51043 4.3249 7.32468 4.3249 8.29901C4.3249 8.84368 4.43324 9.38418 4.6499 9.92051C4.86657 10.4568 5.25824 11.0792 5.8249 11.7875C6.39157 12.4958 7.17074 13.3333 8.1624 14.3C9.15407 15.2667 10.4332 16.4583 11.9999 17.875Z" fill="#8D8D8D"/>
</svg>
