<svg width="24" height="24" viewBox="0 0 24 24" fill="none" xmlns="http://www.w3.org/2000/svg">
<path d="M22.98 11.99L20.48 9.71L21.51 6.49L18.21 5.77L17.49 2.47L14.27 3.5L11.99 1L9.71 3.5L6.49 2.47L5.77 5.77L2.47 6.49L3.5 9.71L1 11.99L3.5 14.27L2.47 17.49L5.77 18.21L6.49 21.51L9.71 20.48L11.99 22.98L14.27 20.48L17.49 21.51L18.21 18.21L21.51 17.49L20.48 14.27L22.98 11.99ZM8.93 15.16H7.47L5.91 10.71H5.89V15.16H4.72V8.81H6.2L7.75 13.16H7.77V8.81H8.94V15.16H8.93ZM13.1 15.16H9.46V8.81H13.01V9.86H10.74V11.35H12.87V12.4H10.74V14.11H13.1V15.16ZM18.83 15.16H17.4L16.69 10.55H16.67L15.96 15.16H14.53L13.37 8.81H14.6L15.3 13.5H15.32L16.07 8.81H17.3L18.05 13.5H18.07L18.77 8.81H20L18.84 15.16H18.83Z" fill="#FF0000"/>
</svg>
