<svg width="24" height="24" viewBox="0 0 24 24" fill="none" xmlns="http://www.w3.org/2000/svg">
<path d="M11.9999 20.125L10.8499 19.0875C9.21207 17.628 7.86099 16.3777 6.79665 15.3365C5.73215 14.2955 4.8934 13.3717 4.2804 12.565C3.66724 11.7583 3.24224 11.021 3.0054 10.353C2.7684 9.685 2.6499 9.00067 2.6499 8.3C2.6499 6.8665 3.14157 5.65817 4.1249 4.675C5.10807 3.69167 6.3164 3.2 7.7499 3.2C8.55474 3.2 9.33507 3.375 10.0909 3.725C10.8469 4.075 11.4832 4.575 11.9999 5.225C12.5416 4.575 13.1832 4.075 13.9249 3.725C14.6666 3.375 15.4416 3.2 16.2499 3.2C17.6834 3.2 18.8917 3.69167 19.8749 4.675C20.8582 5.65817 21.3499 6.8665 21.3499 8.3C21.3499 9.00067 21.2356 9.67667 21.0069 10.328C20.7784 10.9793 20.3576 11.7042 19.7444 12.5025C19.1314 13.3008 18.2885 14.2288 17.2157 15.2865C16.143 16.3443 14.7711 17.628 13.0999 19.1375L11.9999 20.125Z" fill="#31A52F"/>
</svg>
