<svg width="24" height="24" viewBox="0 0 24 24" fill="none" xmlns="http://www.w3.org/2000/svg">
<path d="M18.9434 10.3725C18.5934 10.3725 18.2634 10.1325 18.1734 9.7825C18.0634 9.3525 18.3134 8.9125 18.7434 8.8025L21.0634 8.1825C21.4834 8.0625 21.9334 8.3225 22.0434 8.7525C22.1534 9.1825 21.9034 9.6225 21.4734 9.7325L19.1534 10.3525C19.0834 10.3725 19.0134 10.3825 18.9434 10.3825V10.3725Z" fill="#FF8800"/>
<path d="M17.6834 6.8925C17.4734 6.8925 17.2734 6.8125 17.1134 6.6625C16.8034 6.3525 16.8034 5.8425 17.1134 5.5325L19.4034 3.2325C19.7134 2.9225 20.2234 2.9225 20.5334 3.2325C20.8434 3.5425 20.8434 4.0525 20.5334 4.3625L18.2434 6.6525C18.0834 6.8125 17.8834 6.8825 17.6734 6.8825L17.6834 6.8925Z" fill="#FF8800"/>
<path d="M22.7134 14.8525C22.6434 14.8525 22.5734 14.8525 22.5034 14.8225L19.3834 13.9825C18.9534 13.8725 18.7034 13.4325 18.8134 13.0025C18.9334 12.5725 19.3734 12.3225 19.7934 12.4325L22.9134 13.2725C23.3434 13.3825 23.5934 13.8225 23.4834 14.2525C23.3834 14.6125 23.0634 14.8425 22.7134 14.8425V14.8525Z" fill="#FF8800"/>
<path d="M17.6034 9.9325C16.7534 6.7525 14.7934 4.7125 13.0334 5.1825C12.9634 5.2025 12.9034 5.2325 12.8334 5.2525L12.7634 5.2825C12.6134 5.3525 12.4734 5.4325 12.3434 5.5325L1.68336 11.8025C0.743361 12.3525 0.303361 13.4325 0.583361 14.4925C0.863361 15.5525 1.78336 16.2625 2.87336 16.2725H3.92336L6.33336 20.4525C6.47336 20.7025 6.74336 20.8525 7.02336 20.8525H9.72336C9.99336 20.8525 10.2434 20.7225 10.3834 20.5025C10.5334 20.2825 10.5634 20.0025 10.4634 19.7525L9.07336 16.3325L15.3334 16.3925C15.3834 16.3925 15.4334 16.4125 15.4834 16.4125C15.5334 16.4125 15.5834 16.3925 15.6234 16.3925H15.7934V16.3725C15.8634 16.3625 15.9334 16.3725 16.0034 16.3425C16.9334 16.0925 17.5834 15.2225 17.8334 13.8725C18.0434 12.7325 17.9534 11.3325 17.5834 9.9425L17.6034 9.9325ZM7.14336 15.8125L8.53336 19.2425H7.49336L5.08336 15.0725C4.94336 14.8225 4.68336 14.6725 4.39336 14.6725H2.88336C2.32336 14.6525 2.15336 14.2025 2.12336 14.0625C2.08336 13.9225 2.00336 13.4525 2.49336 13.1725L11.1434 8.0725C11.0234 9.1225 11.1134 10.3425 11.4434 11.5725C11.7734 12.8025 12.3034 13.9025 12.9334 14.7525L7.89336 14.7125C7.61336 14.6825 7.37336 14.8425 7.22336 15.0625C7.07336 15.2825 7.04336 15.5625 7.14336 15.8125ZM16.2734 13.5725C16.1534 14.2325 15.8934 14.7025 15.6034 14.7825H15.4334C15.1534 14.7425 14.7734 14.4925 14.4034 14.0725C14.0634 13.6825 13.7634 13.1625 13.4934 12.5825C14.2734 12.3525 14.7234 11.5425 14.5134 10.7625C14.3034 9.9725 13.5034 9.5125 12.7134 9.6925C12.6534 9.0625 12.6534 8.4525 12.7534 7.9425C12.8534 7.3925 13.0534 6.9925 13.2834 6.8125L13.4434 6.7225C13.4434 6.7225 13.5034 6.7125 13.5434 6.7125C14.1934 6.7125 15.4334 8.0525 16.0534 10.3425C16.3634 11.4925 16.4434 12.6725 16.2734 13.5625V13.5725Z" fill="#FF8800"/>
</svg>
