<svg width="24" height="24" viewBox="0 0 24 24" fill="none" xmlns="http://www.w3.org/2000/svg">
<path d="M11.56 12.54C12.11 12.54 12.58 12.34 12.97 11.95C13.36 11.56 13.55 11.08 13.55 10.53C13.55 9.98 13.35 9.51 12.96 9.12C12.57 8.73 12.09 8.54 11.54 8.54C10.99 8.54 10.52 8.74 10.13 9.13C9.74 9.52 9.55 10 9.55 10.55C9.55 11.1 9.75 11.57 10.14 11.96C10.53 12.35 11.01 12.54 11.56 12.54Z" fill="#FF4400"/>
<path d="M11.54 4.6C13.26 4.6 14.65 5.16 15.79 6.33C16.94 7.5 17.5 8.91 17.5 10.66C17.5 11.9 16.97 13.29 15.92 14.82C14.94 16.25 13.47 17.85 11.55 19.57C9.64 17.86 8.18 16.27 7.19 14.83C6.14 13.3 5.6 11.9 5.6 10.66C5.6 8.91 6.16 7.5 7.3 6.33C8.43 5.17 9.82 4.61 11.54 4.61M11.54 3C9.39 3 7.6 3.73 6.16 5.2C4.72 6.67 4 8.49 4 10.65C4 12.22 4.62 13.91 5.87 15.73C7.12 17.54 9.01 19.53 11.55 21.69C14.11 19.52 16.01 17.53 17.24 15.72C18.48 13.92 19.1 12.23 19.1 10.66C19.1 8.49 18.38 6.68 16.93 5.21C15.48 3.74 13.69 3.01 11.54 3.01V3Z" fill="#FF4400"/>
</svg>
