<svg width="24" height="24" viewBox="0 0 24 24" fill="none" xmlns="http://www.w3.org/2000/svg">
<path d="M19.77 20.6H4.83C3.82 20.6 3 19.78 3 18.77V5.83C3 4.82 3.82 4 4.83 4H19.77C20.78 4 21.6 4.82 21.6 5.83V18.77C21.6 19.78 20.78 20.6 19.77 20.6ZM4.83 5.6C4.7 5.6 4.6 5.7 4.6 5.83V18.77C4.6 18.9 4.7 19 4.83 19H19.77C19.9 19 20 18.9 20 18.77V5.83C20 5.7 19.9 5.6 19.77 5.6H4.83Z" fill="#EF2F9B"/>
<path d="M18.3 15.2H6.3V16.8H18.3V15.2Z" fill="#EF2F9B"/>
<path d="M18.3 8H12.3V9.6H18.3V8Z" fill="#EF2F9B"/>
<path d="M18.3 11.6H12.3V13.2H18.3V11.6Z" fill="#EF2F9B"/>
<path d="M10.3 8H6.3V13.2H10.3V8Z" fill="#EF2F9B"/>
</svg>
