<svg width="13" height="17" viewBox="0 0 13 17" fill="none" xmlns="http://www.w3.org/2000/svg">
<path d="M0 16.326V1.706C0 1.2325 0.166 0.829833 0.498 0.498C0.829833 0.166 1.23208 0 1.70475 0H10.9722C11.4449 0 11.8472 0.166 12.179 0.498C12.511 0.829833 12.677 1.2325 12.677 1.706V16.326L6.3385 13.6182L0 16.326ZM1.399 14.1875L6.3385 12.056L11.278 14.1875V1.70675C11.278 1.62975 11.2459 1.55925 11.1817 1.49525C11.1176 1.43108 11.0471 1.399 10.9703 1.399H1.70675C1.62992 1.399 1.55942 1.43108 1.49525 1.49525C1.43108 1.55925 1.399 1.62975 1.399 1.70675V14.1875Z" fill="#8D8D8D"/>
</svg>
