<svg width="24" height="24" viewBox="0 0 24 24" fill="none" xmlns="http://www.w3.org/2000/svg">
<path d="M15.6 4.6C18.69 4.6 21.2 7.11 21.2 10.2C21.2 13.29 18.69 15.8 15.6 15.8H10.4V18.09L5.39001 14.92C3.77001 13.88 2.80001 12.12 2.80001 10.2C2.80001 7.11 5.31001 4.6 8.40001 4.6H15.6ZM15.6 3H8.40001C4.42001 3 1.20001 6.22 1.20001 10.2C1.20001 12.75 2.53001 14.99 4.53001 16.26L12 21V17.4H15.6C19.58 17.4 22.8 14.18 22.8 10.2C22.8 6.22 19.58 3 15.6 3Z" fill="currentColor"/>
<path d="M12 8.40002C11.12 8.40002 10.4 9.12002 10.4 10C10.4 10.88 11.12 11.6 12 11.6C12.88 11.6 13.6 10.88 13.6 10C13.6 9.12002 12.88 8.40002 12 8.40002Z" fill="currentColor"/>
<path d="M7.20001 8.40002C6.32001 8.40002 5.60001 9.12002 5.60001 10C5.60001 10.88 6.32001 11.6 7.20001 11.6C8.08001 11.6 8.80001 10.88 8.80001 10C8.80001 9.12002 8.08001 8.40002 7.20001 8.40002Z" fill="currentColor"/>
<path d="M16.8 8.40002C15.92 8.40002 15.2 9.12002 15.2 10C15.2 10.88 15.92 11.6 16.8 11.6C17.68 11.6 18.4 10.88 18.4 10C18.4 9.12002 17.68 8.40002 16.8 8.40002Z" fill="currentColor"/>
</svg>
