<svg width="24" height="24" viewBox="0 0 24 24" fill="none" xmlns="http://www.w3.org/2000/svg">
<path d="M19.4413 20.4028L13.244 14.2028C12.7505 14.6156 12.1813 14.9341 11.5365 15.1583C10.8917 15.3823 10.2314 15.4943 9.55575 15.4943C7.88159 15.4943 6.46675 14.9163 5.31125 13.7603C4.15575 12.6043 3.578 11.1918 3.578 9.52276C3.578 7.85376 4.15509 6.44043 5.30925 5.28277C6.46359 4.1251 7.87609 3.54626 9.54675 3.54626C11.2174 3.54626 12.6317 4.12477 13.7895 5.28177C14.9472 6.43893 15.526 7.85285 15.526 9.52352C15.526 10.222 15.4087 10.8949 15.174 11.5423C14.9393 12.1898 14.6262 12.7504 14.2345 13.2243L20.4345 19.4095L19.4413 20.4028ZM9.552 14.0953C10.832 14.0953 11.9145 13.6534 12.7995 12.7698C13.6845 11.8859 14.127 10.8026 14.127 9.51976C14.127 8.23676 13.6845 7.1536 12.7995 6.27027C11.9145 5.38693 10.8312 4.94527 9.5495 4.94527C8.26784 4.94527 7.18534 5.3871 6.302 6.27077C5.41867 7.15443 4.977 8.23777 4.977 9.52077C4.977 10.8038 5.41875 11.8869 6.30225 12.7703C7.18592 13.6536 8.26917 14.0953 9.552 14.0953Z" fill="currentColor"/>
</svg>
