<svg width="18" height="16" viewBox="0 0 18 16" fill="none" xmlns="http://www.w3.org/2000/svg">
<path d="M5.675 14.5875V12.7125H17.55V14.5875H5.675ZM5.675 8.7V6.825H17.55V8.7H5.675ZM5.675 2.8375V0.9625H17.55V2.8375H5.675ZM1.89725 15.55C1.37408 15.55 0.927083 15.3637 0.55625 14.991C0.185417 14.6185 0 14.1706 0 13.6473C0 13.1241 0.186333 12.6771 0.559 12.3063C0.9315 11.9354 1.37942 11.75 1.90275 11.75C2.42592 11.75 2.87292 11.9363 3.24375 12.309C3.61458 12.6815 3.8 13.1294 3.8 13.6528C3.8 14.1759 3.61367 14.6229 3.241 14.9938C2.8685 15.3646 2.42058 15.55 1.89725 15.55ZM1.89725 9.6625C1.37408 9.6625 0.927083 9.47617 0.55625 9.1035C0.185417 8.731 0 8.28308 0 7.75975C0 7.23658 0.186333 6.78958 0.559 6.41875C0.9315 6.04792 1.37942 5.8625 1.90275 5.8625C2.42592 5.8625 2.87292 6.04883 3.24375 6.4215C3.61458 6.794 3.8 7.24192 3.8 7.76525C3.8 8.28842 3.61367 8.73542 3.241 9.10625C2.8685 9.47708 2.42058 9.6625 1.89725 9.6625ZM1.89725 3.8C1.37408 3.8 0.927083 3.61367 0.55625 3.241C0.185417 2.8685 0 2.42058 0 1.89725C0 1.37408 0.186333 0.927083 0.559 0.55625C0.9315 0.185417 1.37942 0 1.90275 0C2.42592 0 2.87292 0.186333 3.24375 0.559C3.61458 0.9315 3.8 1.37942 3.8 1.90275C3.8 2.42592 3.61367 2.87292 3.241 3.24375C2.8685 3.61458 2.42058 3.8 1.89725 3.8Z" fill="currentColor"/>
</svg>
