<svg width="16" height="20" viewBox="0 0 16 20" fill="none" xmlns="http://www.w3.org/2000/svg">
<path d="M7.7505 9.675C8.2835 9.675 8.73958 9.48525 9.11875 9.10575C9.49792 8.72625 9.6875 8.27 9.6875 7.737C9.6875 7.204 9.49775 6.74792 9.11825 6.36875C8.73875 5.98958 8.2825 5.8 7.7495 5.8C7.2165 5.8 6.76042 5.98975 6.38125 6.36925C6.00208 6.74875 5.8125 7.205 5.8125 7.738C5.8125 8.271 6.00225 8.72708 6.38175 9.10625C6.76125 9.48542 7.2175 9.675 7.7505 9.675ZM7.75 19.4875C5.14167 17.2292 3.19792 15.1521 1.91875 13.2563C0.639583 11.3604 0 9.60158 0 7.97975C0 5.54692 0.78125 3.60875 2.34375 2.16525C3.90625 0.72175 5.70833 0 7.75 0C9.79167 0 11.5938 0.72175 13.1562 2.16525C14.7188 3.60875 15.5 5.54692 15.5 7.97975C15.5 9.60158 14.8604 11.3604 13.5813 13.2563C12.3021 15.1521 10.3583 17.2292 7.75 19.4875Z" fill="currentColor"/>
</svg>
